<?xml version="1.0" encoding="UTF-8" standalone="no"?>
<!-- Created with Inkscape (http://www.inkscape.org/) -->

<svg
   xmlns:dc="http://purl.org/dc/elements/1.1/"
   xmlns:cc="http://creativecommons.org/ns#"
   xmlns:rdf="http://www.w3.org/1999/02/22-rdf-syntax-ns#"
   xmlns:svg="http://www.w3.org/2000/svg"
   xmlns="http://www.w3.org/2000/svg"
   xmlns:sodipodi="http://sodipodi.sourceforge.net/DTD/sodipodi-0.dtd"
   xmlns:inkscape="http://www.inkscape.org/namespaces/inkscape"
   width="210mm"
   height="297mm"
   viewBox="0 0 744.09448819 1052.3622047"
   id="svg2"
   version="1.1"
   inkscape:version="0.91 r13725"
   sodipodi:docname="reactorArc.svg">
  <defs
     id="defs4" />
  <sodipodi:namedview
     id="base"
     pagecolor="#ffffff"
     bordercolor="#666666"
     borderopacity="1.0"
     inkscape:pageopacity="0.0"
     inkscape:pageshadow="2"
     inkscape:zoom="0.35"
     inkscape:cx="-31.198429"
     inkscape:cy="413.70355"
     inkscape:document-units="px"
     inkscape:current-layer="layer1"
     showgrid="false"
     inkscape:window-width="1366"
     inkscape:window-height="705"
     inkscape:window-x="-8"
     inkscape:window-y="32"
     inkscape:window-maximized="1" />
  <metadata
     id="metadata7">
    <rdf:RDF>
      <cc:Work
         rdf:about="">
        <dc:format>image/svg+xml</dc:format>
        <dc:type
           rdf:resource="http://purl.org/dc/dcmitype/StillImage" />
        <dc:title></dc:title>
      </cc:Work>
    </rdf:RDF>
  </metadata>
  <g
     inkscape:label="Capa 1"
     inkscape:groupmode="layer"
     id="layer1">
    <path
       style="fill:#000000"
       d="m 357.94261,357.34403 c -36.6805,-4.972 -67.82371,-22.3908 -90.52311,-50.6307 -17.4611,-21.7229 -26.8042,-45.2524 -29.9495,-75.424 -1.7359,-16.6524 0.7853,-37.0007 6.7663,-54.6092 13.8274,-40.70879 46.3618,-73.22679 86.65091,-86.607193 30.1772,-10.0221 58.098,-10.0077 88.3661,0.046 19.7462,6.5586 37.5618,17.694503 52.9924,33.123703 23.6996,23.6975 36.5276,51.40359 40.2175,86.86199 2.3489,22.5723 -3.4056,50.7685 -14.9463,73.2337 -13.462,26.2055 -34.3981,47.0076 -60.5053,60.1183 -15.9206,7.9951 -27.5219,11.5254 -45.6891,13.9033 -12.87,1.6846 -20.8648,1.6809 -33.3799,-0.015 z m 34.0847,-16.5523 c 82.2733,-12.3991 128.3738,-99.8373 91.7661,-174.0517 -25.9054,-52.51779 -86.3894,-79.228393 -142.4491,-62.90759 -35.4158,10.3107 -64.22341,35.9256 -78.51781,69.81569 -13.5209,32.0565 -12.2317,70.3368 3.4124,101.3248 16.9264,33.528 49.80231,58.3901 85.70991,64.8172 15.3015,2.7388 26.6669,3.0229 40.0785,1.0016 z m -37.187,-6.5394 c -47.008,-7.8796 -86.02011,-47.207 -93.68031,-94.4374 -6.4815,-39.9631 7.8905,-80.12389 38.04211,-106.30389 20.574,-17.8639 43.6636,-26.9371 71.1893,-27.9741 19.7207,-0.743 36.0201,2.4104 53.1699,10.2866 28.7721,13.2138 51.9119,39.6783 61.5507,70.39429 7.3662,23.4736 6.721,50.5663 -1.7644,74.0925 -13.7979,38.2552 -48.3744,67.0078 -88.9129,73.9369 -10.5473,1.8028 -28.8558,1.8052 -39.5944,0.01 z m 3.2173,-9.09 c 0.2926,-0.7625 -4.4361,-10.0014 -10.864,-21.226 -8.5675,-14.9611 -11.7568,-19.7849 -12.8975,-19.5079 -2.533,0.6151 -24.6443,19.3883 -24.7068,20.977 -0.1249,3.1735 17.9743,13.1432 32.6771,17.9997 10.0986,3.3356 14.9771,3.8785 15.7912,1.7572 z m 48.9773,-1.5277 c 13.8624,-4.4319 33.4382,-14.9539 33.4382,-17.9732 0,-1.3583 -23.7339,-21.563 -25.3294,-21.563 -1.5476,0 -23.8437,39.3796 -23.2185,41.0088 0.8213,2.1399 5.1208,1.7208 15.1097,-1.4726 z m -19.7583,-5.6511 c 3.4998,-3.25 77.1718,-131.8082 77.1718,-134.6654 0,-3.4405 -3.6753,-5.7727 -7.1307,-4.5248 -1.4034,0.5068 -9.915,4.8143 -18.9146,9.5723 l -16.3631,8.6508 -22.6765,39.1613 -22.6765,39.1612 0.5373,12.9087 c 0.2955,7.0997 0.5389,16.1431 0.5407,20.0964 0,6.3996 0.2516,7.4359 2.2668,9.4509 2.8045,2.8042 4.3839,2.8454 7.2448,0.1886 z m -18.7295,-2.5356 c 1.4887,-1.4886 1.8576,-3.1328 1.9132,-8.5289 0.038,-3.6767 0.3776,-12.7012 0.7547,-20.0545 l 0.6856,-13.3696 -22.8096,-39.5825 -22.8096,-39.5825 -17.3594,-9.0643 c -9.5477,-4.9854 -18.02341,-9.2751 -18.83481,-9.5326 -2.0017,-0.6353 -6.3759,2.949 -6.3759,5.2245 0,1.7923 74.35991,131.5156 77.22461,134.7209 1.9191,2.1473 5.3367,2.0438 7.6112,-0.2305 z m 93.8584,-31.324 c 4.9745,-6.8403 13.0673,-21.9988 13.0907,-24.5201 0.015,-1.5733 -3.0686,-3.3611 -17.7332,-10.2824 -13.464,-6.3546 -18.0138,-8.1215 -18.8394,-7.316 -0.5985,0.5841 -4.1952,6.4559 -7.9925,13.0486 -6.4613,11.2177 -6.8056,12.0872 -5.3665,13.5558 3.0918,3.1553 30.8573,21.7796 31.8583,21.3695 0.5674,-0.2324 2.8096,-2.8673 4.9826,-5.8554 z m -153.8139,-6.2493 c 8.6176,-5.9587 15.6739,-11.3967 15.6808,-12.0844 0.021,-2.1027 -13.9519,-25.95 -15.205,-25.95 -0.6455,0 -8.942,3.7336 -18.43691,8.2969 -17.0565,8.1974 -17.2557,8.3271 -16.6292,10.8229 1.7472,6.9607 15.3493,29.7486 17.757,29.7486 0.6408,0 8.21571,-4.8753 16.83331,-10.834 z m 70.8366,-32.6865 c 1.4056,-1.4055 1.4341,-5.5736 0.048,-6.96 -1.6285,-1.6283 10.9249,-22.361 13.5393,-22.361 3.0005,0 5.2706,-2.1843 5.2706,-5.0713 0,-4.9987 -6.3452,-6.9327 -9.0755,-2.7661 -1.4912,2.2756 -1.6745,2.3051 -14.3143,2.3051 -10.6296,0 -12.8037,-0.2293 -12.8037,-1.3506 0,-1.5928 -2.7873,-3.2596 -5.4509,-3.2596 -1.036,0 -2.5946,1.0851 -3.4637,2.4113 -1.4164,2.1615 -1.4392,2.6631 -0.2197,4.8408 0.9303,1.6613 2.3519,2.5751 4.4965,2.8904 2.8623,0.4207 3.6736,1.3522 9.2953,10.6719 5.4951,9.11 6.0235,10.3966 4.9005,11.9323 -1.6671,2.2797 -1.5884,4.0868 0.2673,6.137 1.7331,1.9149 5.8571,2.2332 7.5107,0.5798 z m -95.36701,-15.1048 c 7.6687,-2.8307 14.44581,-5.6314 15.06021,-6.2238 0.8674,-0.8363 -1.4679,-5.5604 -10.44601,-21.1316 -6.3747,-11.0559 -12.1419,-20.0545 -12.853,-20.0545 -4.0236,0 -7.7946,15.0723 -8.4569,33.8018 -0.5043,14.2615 -0.09,18.7548 1.7287,18.7548 0.5631,0 7.2983,-2.316 14.967,-5.1467 z m 198.45161,1.8017 c 1.2928,-6.8904 -0.2556,-27.9933 -2.7624,-37.6491 -2.413,-9.2945 -4.0157,-12.206 -6.2398,-11.3355 -1.4146,0.5536 -23.3552,38.3317 -23.3552,40.2139 0,1.2128 26.7083,11.8763 30.1579,12.0408 1.0997,0.052 1.7605,-0.9301 2.1995,-3.2701 z m -44.8862,-50.2549 c 8.9195,-5.645 16.9435,-10.8958 17.8311,-11.6684 2.0354,-1.7719 2.078,-5.5319 0.088,-7.73119 -1.4553,-1.608 -5.1156,-1.6861 -78.9998,-1.6861 -70.7961,0 -77.6191,0.1315 -79.1601,1.5259 -2.00881,1.81779 -2.21691,6.10629 -0.3707,7.63839 0.7236,0.6005 8.7115,5.8251 17.751,11.6102 l 16.4353,10.5184 45.1042,0.028 45.1043,0.028 16.2172,-10.2638 z m -97.9873,-27.58709 c 1.0769,-1.0768 -3.7602,-31.0917 -5.2571,-32.6212 -2.2781,-2.3276 -23.1925,10.823 -34.5461,21.722 -12.27251,11.7811 -12.15051,11.8683 16.6108,11.8683 14.3049,0 22.5686,-0.3453 23.1924,-0.9691 z m 51.4225,0.1723 c 0.2709,-0.4382 1.1876,-9.3797 2.0371,-19.8699 1.0802,-13.3383 1.2531,-19.3648 0.575,-20.0428 -1.2494,-1.2493 -22.0152,-2.1539 -29.9471,-1.3045 -3.354,0.3591 -6.2613,1.1422 -6.4606,1.74 -0.5293,1.5877 2.586,37.9657 3.3582,39.2151 0.7829,1.2665 29.6629,1.5152 30.4374,0.2621 z m 65.9607,-0.5274 c 1.5852,-1.91 0.3382,-3.7451 -7.7945,-11.4696 -11.055,-10.5002 -31.4127,-23.0081 -33.7096,-20.7114 -1.5373,1.5372 -6.259,31.4309 -5.1411,32.5488 0.6079,0.6077 9.0833,0.9564 23.2513,0.9564 18.2516,0 22.4941,-0.2402 23.3939,-1.3242 z"
       id="path4199-696"
       inkscape:connector-curvature="0" />
    <g
       id="g4291-9-7"
       transform="matrix(0.97072901,0,0,0.97071085,-668.38508,324.58893)">
      <path
         inkscape:connector-curvature="0"
         id="path4222-0-7-4-5"
         d="M 1216.6089,490.71743 A 141.80665,141.81135 0 0 1 1074.8022,632.5288 141.80665,141.81135 0 0 1 932.99563,490.71743 141.80665,141.81135 0 0 1 1074.8022,348.90609 141.80665,141.81135 0 0 1 1216.6089,490.71743 Z"
         style="opacity:1;fill:none;fill-opacity:1;fill-rule:nonzero;stroke:#000000;stroke-width:1.03016317;stroke-linecap:square;stroke-linejoin:bevel;stroke-miterlimit:4;stroke-dasharray:none;stroke-opacity:1" />
      <path
         inkscape:connector-curvature="0"
         id="path4222-0-5-2-83"
         d="M 1190.3443,490.71742 A 115.54213,115.54595 0 0 1 1074.8025,606.26341 115.54213,115.54595 0 0 1 959.26021,490.71742 115.54213,115.54595 0 0 1 1074.8025,375.17149 115.54213,115.54595 0 0 1 1190.3443,490.71742 Z"
         style="opacity:1;fill:none;fill-opacity:1;fill-rule:nonzero;stroke:#000000;stroke-width:1.03016341;stroke-linecap:square;stroke-linejoin:bevel;stroke-miterlimit:4;stroke-dasharray:none;stroke-opacity:1" />
    </g>
    <path
       style="opacity:1;fill:none;fill-opacity:1;fill-rule:nonzero;stroke:#000000;stroke-width:0.99999994;stroke-linecap:square;stroke-linejoin:bevel;stroke-miterlimit:4;stroke-dasharray:none;stroke-opacity:1"
       d="m 512.61245,510.69809 a 137.65583,137.65782 0 0 1 -137.6558,137.6577 137.65583,137.65782 0 0 1 -137.6558,-137.6577 137.65583,137.65782 0 0 1 137.6558,-137.6579 137.65583,137.65782 0 0 1 137.6558,137.6579 z"
       id="path4222-8-8"
       inkscape:connector-curvature="0" />
    <path
       style="opacity:1;fill:none;fill-opacity:1;fill-rule:nonzero;stroke:#000000;stroke-width:1;stroke-linecap:square;stroke-linejoin:bevel;stroke-miterlimit:4;stroke-dasharray:none;stroke-opacity:1"
       d="m 358.79422,911.56991 32.32488,0 0,27.02158 -32.32488,0 z"
       id="rect4150"
       inkscape:connector-curvature="0" />
  </g>
</svg>
